<svg width="757" height="688" viewBox="0 0 757 688" fill="none" xmlns="http://www.w3.org/2000/svg">
<g clip-path="url(#clip0_635_3)">
<path d="M926 440.5C926 326.71 879.557 217.356 796.443 135.442C713.328 53.5274 600.019 5.43864 480.354 1.29193C360.69 -2.85478 243.996 37.2638 154.824 113.208C65.6509 189.152 10.95 295.002 2.22841 408.489C-6.49322 521.976 31.4443 634.255 108.06 721.704C184.676 809.153 293.997 864.957 413.026 877.375C532.056 889.793 651.514 857.858 746.271 788.287C841.027 718.717 903.696 616.935 921.093 504.352L906.452 502.309C889.612 611.289 828.948 709.815 737.223 777.16C645.498 844.504 529.862 875.418 414.641 863.397C299.42 851.376 193.597 797.358 119.432 712.707C45.2681 628.055 8.54438 519.369 16.987 409.513C25.4295 299.657 78.3803 197.194 164.7 123.68C251.019 50.1655 363.979 11.3305 479.815 15.3445C595.651 19.3586 705.334 65.9087 785.79 145.202C866.246 224.496 911.202 330.351 911.202 440.5H926Z" fill="#E1E1E1"/>
</g>
<defs>
<clipPath id="clip0_635_3">
<rect width="757" height="689" fill="white"/>
</clipPath>
</defs>
</svg>
